<?xml version="1.0" encoding="UTF-8" standalone="no"?>
<svg
   xmlns:dc="http://purl.org/dc/elements/1.1/"
   xmlns:cc="http://creativecommons.org/ns#"
   xmlns:rdf="http://www.w3.org/1999/02/22-rdf-syntax-ns#"
   xmlns:svg="http://www.w3.org/2000/svg"
   xmlns="http://www.w3.org/2000/svg"
   viewBox="0 0 533.33331 73.333336"
   height="73.333336"
   width="533.33331"
   xml:space="preserve"
   id="svg2"
   version="1.1"><metadata
     id="metadata8"><rdf:RDF><cc:Work
         rdf:about=""><dc:format>image/svg+xml</dc:format><dc:type
           rdf:resource="http://purl.org/dc/dcmitype/StillImage" /></cc:Work></rdf:RDF></metadata><defs
     id="defs6" /><g
     transform="matrix(1.3333333,0,0,-1.3333333,0,73.333333)"
     id="g10"><g
       transform="scale(0.1)"
       id="g12"><path
         id="path14"
         style="fill:#4573b5;fill-opacity:1;fill-rule:evenodd;stroke:none"
         d="m 299.531,303.789 c 18.707,30.352 28.438,57.93 29.18,82.691 1.211,23.168 -1.871,47.622 -9.301,73.399 -3.469,14.262 -2.109,24.531 4.11,30.82 6.281,6.332 15.66,7.461 28.039,3.36 10.781,-3.938 20.941,-11.207 30.472,-21.719 9.528,-10.539 16.489,-22.11 20.821,-34.762 6.558,-22.187 3.089,-44.098 -10.43,-65.777 -17.582,-27.5 -45.512,-53.211 -83.793,-77.11 -15,-9.3 -18.039,-6.293 -9.098,9.098" /><path
         id="path16"
         style="fill:#7fb3dc;fill-opacity:1;fill-rule:evenodd;stroke:none"
         d="M 116.84,358.98 C 95.6602,312.891 85.5508,270.309 86.5586,231.289 87.1914,200.43 97.1484,176.52 116.48,159.57 c 11.641,-9.3 24.969,-15.429 39.93,-18.398 15.11,-3.082 28.75,-2.461 40.891,1.879 13.64,5.429 21.328,13.711 23.051,24.879 1.597,11.019 -3.59,22.23 -15.622,33.629 -24.14,20.711 -42.781,42.621 -55.902,65.781 -13.008,23.172 -19.34,53.398 -18.988,90.711 -0.461,17.34 -4.84,17.648 -13,0.929 m 54.84,83.598 C 126.211,445.699 87.6602,440.781 56.0508,427.93 31.1719,417.5 14.3398,401.211 5.55078,379.02 0.941406,365.898 -0.78125,352.23 0.308594,337.969 1.44922,323.711 5.16016,311.879 11.4805,302.461 c 7.6601,-10.512 16.1797,-14.801 25.4687,-12.813 9.1406,2.114 16.9219,10.391 23.211,24.922 10.6601,27.852 24.1015,51.129 40.3518,69.84 16.328,18.828 40.738,34.262 73.199,46.289 15.98,6.68 15.309,10.629 -2.031,11.879 M 273.121,415.82 c -22.769,26.41 -45.66,43.629 -68.551,51.68 -21.449,8.16 -45.468,12.621 -72.109,13.398 -14.609,0.821 -23.981,5.043 -28.082,12.622 -3.949,7.531 -2.149,16.402 5.422,26.558 7.039,8.551 16.961,15.621 29.73,21.211 12.848,5.551 25.938,8.481 39.18,8.711 22.699,-0.621 42.187,-10.27 58.559,-28.98 20.539,-24.032 36.359,-57.231 47.378,-99.61 4.102,-16.609 0.231,-18.48 -11.527,-5.59" /><path
         id="path18"
         style="fill:#4675b6;fill-opacity:1;fill-rule:nonzero;stroke:none"
         d="m 667.93,289.141 22.031,-23.59 c 6.949,8.429 12.07,17.179 15.309,26.25 3.21,9.14 4.851,19.058 4.851,29.679 0,11.641 -2.109,22.661 -6.25,32.969 -4.07,10.321 -10.082,19.461 -17.973,27.5 -8.046,8.129 -17.148,14.379 -27.347,18.75 -10.231,4.379 -20.852,6.571 -31.871,6.571 -11.168,0 -21.84,-2.192 -32.032,-6.571 -10.238,-4.371 -19.296,-10.621 -27.187,-18.75 -7.93,-8.039 -13.981,-17.179 -18.121,-27.5 -4.18,-10.308 -6.25,-21.328 -6.25,-32.969 0,-23.98 8.039,-44.179 24.211,-60.621 16.25,-16.371 36.328,-24.531 60.32,-24.531 6.438,0 12.578,0.66 18.43,2.031 5.937,1.442 11.801,3.672 17.66,6.719 l -40.941,44.063 z m 46.41,-50.782 48.59,-52.5 h -44.379 l -29.84,32.34 c -10.231,-5.539 -20.59,-9.648 -31.09,-12.34 -10.551,-2.699 -21.531,-4.058 -32.973,-4.058 -15.546,0 -30.738,3.078 -45.628,9.219 -14.918,6.128 -27.93,14.679 -39.059,25.621 -11.563,11.25 -20.43,24.097 -26.563,38.589 -6.058,14.461 -9.058,29.891 -9.058,46.25 0,16.329 3,31.758 9.058,46.25 6.133,14.461 15,27.348 26.563,38.598 11.449,11.25 24.57,19.844 39.379,25.781 14.879,6.012 30.66,9.063 47.34,9.063 16.558,0 32.23,-3.051 47.031,-9.063 14.769,-5.937 27.891,-14.531 39.379,-25.781 11.558,-11.367 20.39,-24.297 26.558,-38.75 6.133,-14.488 9.223,-29.848 9.223,-46.098 0,-15.859 -2.973,-30.89 -8.91,-45.152 -5.859,-14.18 -14.371,-26.84 -25.621,-37.969 z m 107.5,117.032 v -83.442 c 0,-14.371 2.961,-24.679 8.898,-30.929 5.942,-6.25 15.551,-9.379 28.91,-9.379 13.321,0 22.973,3.129 28.903,9.379 5.937,6.25 8.91,16.558 8.91,30.929 v 83.442 h 33.91 v -73.282 c 0,-28.359 -5.711,-48.91 -17.031,-61.718 -11.371,-12.813 -29.5,-19.219 -54.379,-19.219 -25.313,0 -43.672,6.328 -55,19.058 -11.371,12.7 -17.031,33.321 -17.031,61.879 v 73.282 z" /><path
         id="path20"
         style="fill:#4675b6;fill-opacity:1;fill-rule:nonzero;stroke:none"
         d="m 1116.52,207.27 h -33.9 v 19.21 c -6.06,-8.55 -13.13,-14.921 -21.25,-19.058 -8.05,-4.141 -17.27,-6.25 -27.66,-6.25 -20.94,0 -37.46,7.109 -49.53,21.406 -11.989,14.371 -17.969,33.981 -17.969,58.902 0,23.641 6.129,42.7 18.437,57.192 12.262,14.566 28.322,21.879 48.122,21.879 12.07,0 22.39,-2.582 30.94,-7.66 8.63,-5 14.92,-12.27 18.91,-21.719 v 24.219 h 33.9 z m -32.97,74.531 c 0,15.308 -3.59,27.219 -10.78,35.777 -7.11,8.512 -17.03,12.813 -29.84,12.813 -12.81,0 -22.93,-4.45 -30.31,-13.282 -7.31,-8.75 -10.94,-20.937 -10.94,-36.558 0,-15.75 3.52,-27.891 10.62,-36.41 7.08,-8.551 17.08,-12.813 30,-12.813 12.19,0 22.08,4.613 29.69,13.902 7.7,9.258 11.56,21.45 11.56,36.571 z" /><path
         id="path22"
         style="fill:#4675b6;fill-opacity:1;fill-rule:nonzero;stroke:none"
         d="m 1164.96,207.262 h 33.9102 V 449.45 H 1164.96 Z" /><path
         id="path24"
         style="fill:#4675b6;fill-opacity:1;fill-rule:nonzero;stroke:none"
         d="m 1244.18,419.449 c 0,5.711 2.07,10.672 6.25,14.852 4.26,4.14 9.3,6.25 15.16,6.25 6.01,0 11.01,-2.031 15,-6.102 4.06,-3.98 6.09,-8.98 6.09,-15 0,-6.051 -2.03,-11.168 -6.09,-15.308 -4.07,-4.063 -9.07,-6.09 -15,-6.09 -5.86,0 -10.9,2.07 -15.16,6.25 -4.18,4.25 -6.25,9.289 -6.25,15.148 z m 4.53,-64.058 h 33.9102 V 207.27 H 1248.71 Z" /><path
         id="path26"
         style="fill:#4675b6;fill-opacity:1;fill-rule:nonzero;stroke:none"
         d="m 1338.87,207.27 v 118.429 h -25.94 v 29.692 h 25.94 v 56.089 h 33.9 v -56.089 h 25.94 v -29.692 h -25.94 V 207.27 Z" /><path
         id="path28"
         style="fill:#4675b6;fill-opacity:1;fill-rule:nonzero;stroke:none"
         d="m 1453.24,137.578 h -34.84 l 40.62,82.5 -54.37,135.313 h 37.5 l 27.19,-76.719 c 1.56,-4.692 2.89,-9.492 4.06,-14.371 1.25,-4.813 2.22,-9.692 2.97,-14.692 1.33,5.192 4.57,13.481 9.68,24.84 l 0.79,1.879 36.56,79.063 h 36.72 z" /><path
         id="path30"
         style="fill:#4675b6;fill-opacity:1;fill-rule:nonzero;stroke:none"
         d="m 1804.8,324.449 h 90.63 c 0,-1.558 0.04,-3.75 0.16,-6.558 0.31,-7.422 0.46,-12.422 0.46,-15 0,-32.192 -9.21,-57.192 -27.65,-75 -18.44,-17.813 -44.45,-26.719 -77.97,-26.719 -18.75,0 -35.47,2.777 -50.16,8.277 -14.68,5.512 -27.57,13.832 -38.59,25 -10.86,11.02 -19.18,23.992 -25,38.91 -5.74,14.879 -8.59,30.821 -8.59,47.813 0,17.269 2.89,33.207 8.75,47.808 5.93,14.571 14.68,27.43 26.25,38.598 11.13,10.942 24.21,19.262 39.21,25 15,5.703 31.02,8.594 48.13,8.594 18.01,0 34.1,-3.281 48.28,-9.844 14.26,-6.558 26.95,-16.637 38.13,-30.156 l -27.19,-20.473 c -7.74,8.949 -16.41,15.629 -26.1,20 -9.68,4.379 -20.54,6.571 -32.5,6.571 -24.8,0 -45.07,-7.969 -60.78,-23.911 -15.62,-15.859 -23.43,-36.48 -23.43,-61.879 0,-25.859 7.81,-46.832 23.43,-62.96 15.71,-16.059 36.1,-24.071 61.1,-24.071 21.25,0 37.97,4.93 50.15,14.852 12.19,9.879 18.28,23.359 18.28,40.469 v 3.281 h -55 z" /><path
         id="path32"
         style="fill:#4675b6;fill-opacity:1;fill-rule:nonzero;stroke:none"
         d="m 2074.8,276.328 h -118.43 c 0.82,-13.867 4.92,-24.687 12.34,-32.5 7.38,-7.738 17.23,-11.558 29.53,-11.558 10.94,0 20.04,2.261 27.35,6.871 7.26,4.57 13.63,11.949 19.06,22.187 l 28.59,-15.937 c -8.36,-14.922 -18.67,-26.012 -30.94,-33.282 -12.3,-7.269 -26.71,-10.937 -43.28,-10.937 -23.75,0 -42.65,7.226 -56.72,21.719 -14.06,14.449 -21.09,33.789 -21.09,57.968 0,23.2 7.23,42.262 21.72,57.192 14.57,15 33.28,22.5 56.09,22.5 23.83,0 42.43,-6.84 55.78,-20.473 13.32,-13.668 20,-32.777 20,-57.348 z m -35.15,22.813 c -1.37,10.629 -5.43,18.668 -12.19,24.218 -6.8,5.621 -16.05,8.442 -27.81,8.442 -11.17,0 -20.12,-2.742 -26.88,-8.129 -6.79,-5.434 -11.52,-13.594 -14.22,-24.531 z" /><path
         id="path34"
         style="fill:#4675b6;fill-opacity:1;fill-rule:nonzero;stroke:none"
         d="m 2143.09,281.801 c 0,-15.121 3.82,-27.313 11.56,-36.571 7.81,-9.289 17.85,-13.902 30.15,-13.902 12.82,0 22.7,4.262 29.69,12.813 7.07,8.519 10.63,20.66 10.63,36.41 0,15.621 -3.71,27.808 -11.1,36.558 -7.3,8.832 -17.34,13.282 -30.15,13.282 -12.82,0 -22.82,-4.301 -30,-12.813 -7.19,-8.558 -10.78,-20.469 -10.78,-35.777 z m 1.09,167.648 V 331.172 c 3.94,9.379 10.23,16.598 18.91,21.719 8.75,5.078 19.14,7.66 31.25,7.66 19.68,0 35.62,-7.313 47.81,-21.879 12.26,-14.492 18.44,-33.551 18.44,-57.192 0,-24.921 -6.06,-44.531 -18.13,-58.902 -11.99,-14.297 -28.44,-21.406 -49.37,-21.406 -10.43,0 -19.69,2.109 -27.82,6.25 -8.04,4.137 -15.07,10.508 -21.09,19.058 v -19.21 h -33.91 v 242.179 z" /><path
         id="path36"
         style="fill:#4675b6;fill-opacity:1;fill-rule:nonzero;stroke:none"
         d="m 2435.9,207.27 h -33.91 v 19.21 c -6.05,-8.55 -13.12,-14.921 -21.25,-19.058 -8.04,-4.141 -17.26,-6.25 -27.65,-6.25 -20.94,0 -37.47,7.109 -49.54,21.406 -11.99,14.371 -17.96,33.981 -17.96,58.902 0,23.641 6.13,42.7 18.43,57.192 12.27,14.566 28.32,21.879 48.13,21.879 12.07,0 22.38,-2.582 30.94,-7.66 8.63,-5 14.92,-12.27 18.9,-21.719 v 24.219 h 33.91 z m -32.97,74.531 c 0,15.308 -3.59,27.219 -10.78,35.777 -7.11,8.512 -17.03,12.813 -29.85,12.813 -12.81,0 -22.92,-4.45 -30.31,-13.282 -7.3,-8.75 -10.94,-20.937 -10.94,-36.558 0,-15.75 3.52,-27.891 10.63,-36.41 7.07,-8.551 17.07,-12.813 30,-12.813 12.19,0 22.07,4.613 29.69,13.902 7.69,9.258 11.56,21.45 11.56,36.571 z m -30.31,121.558 c 0,5 1.87,9.301 5.62,12.969 3.75,3.75 8.17,5.621 13.28,5.621 5.08,0 9.46,-1.828 13.13,-5.469 3.63,-3.55 5.47,-7.929 5.47,-13.121 0,-5.55 -1.8,-10.121 -5.32,-13.75 -3.43,-3.558 -7.89,-5.308 -13.28,-5.308 -5.31,0 -9.8,1.789 -13.43,5.469 -3.68,3.628 -5.47,8.16 -5.47,13.589 z m -56.88,0 c 0,5 1.88,9.301 5.63,12.969 3.75,3.75 8.16,5.621 13.28,5.621 5.08,0 9.45,-1.828 13.12,-5.469 3.64,-3.55 5.47,-7.929 5.47,-13.121 0,-5.55 -1.79,-10.121 -5.31,-13.75 -3.44,-3.558 -7.89,-5.308 -13.28,-5.308 -5.31,0 -9.81,1.789 -13.44,5.469 -3.67,3.628 -5.47,8.16 -5.47,13.589 z" /><path
         id="path38"
         style="fill:#4675b6;fill-opacity:1;fill-rule:nonzero;stroke:none"
         d="m 2515.59,355.391 v -83.442 c 0,-14.371 2.96,-24.679 8.9,-30.929 5.94,-6.25 15.55,-9.379 28.91,-9.379 13.32,0 22.97,3.129 28.9,9.379 5.94,6.25 8.91,16.558 8.91,30.929 v 83.442 h 33.91 v -73.282 c 0,-28.359 -5.71,-48.91 -17.03,-61.718 -11.37,-12.813 -29.5,-19.219 -54.38,-19.219 -25.31,0 -43.67,6.328 -55,19.058 -11.37,12.7 -17.03,33.321 -17.03,61.879 v 73.282 z" /><path
         id="path40"
         style="fill:#4675b6;fill-opacity:1;fill-rule:nonzero;stroke:none"
         d="m 2777.3,281.801 c 0,15.308 -3.59,27.219 -10.78,35.777 -7.11,8.512 -17.03,12.813 -29.84,12.813 -12.81,0 -22.93,-4.45 -30.31,-13.282 -7.31,-8.75 -10.94,-20.937 -10.94,-36.558 0,-15.75 3.52,-27.891 10.62,-36.41 7.07,-8.551 17.07,-12.813 30,-12.813 12.27,0 22.23,4.57 29.85,13.75 7.58,9.262 11.4,21.481 11.4,36.723 z m -0.93,167.648 h 33.9 V 207.27 h -33.9 v 19.21 c -6.06,-8.55 -13.13,-14.921 -21.25,-19.058 -8.05,-4.141 -17.27,-6.25 -27.66,-6.25 -20.94,0 -37.46,7.109 -49.53,21.406 -11.99,14.371 -17.97,33.981 -17.97,58.902 0,23.641 6.13,42.7 18.44,57.192 12.26,14.566 28.32,21.879 48.12,21.879 12.07,0 22.39,-2.582 30.94,-7.66 8.63,-5 14.92,-12.27 18.91,-21.719 z" /><path
         id="path42"
         style="fill:#4675b6;fill-opacity:1;fill-rule:nonzero;stroke:none"
         d="m 2999.8,276.328 h -118.43 c 0.82,-13.867 4.92,-24.687 12.34,-32.5 7.38,-7.738 17.23,-11.558 29.53,-11.558 10.94,0 20.04,2.261 27.35,6.871 7.26,4.57 13.63,11.949 19.06,22.187 l 28.59,-15.937 c -8.36,-14.922 -18.67,-26.012 -30.94,-33.282 -12.3,-7.269 -26.71,-10.937 -43.28,-10.937 -23.75,0 -42.65,7.226 -56.72,21.719 -14.06,14.449 -21.09,33.789 -21.09,57.968 0,23.2 7.23,42.262 21.72,57.192 14.57,15 33.28,22.5 56.09,22.5 23.83,0 42.43,-6.84 55.78,-20.473 13.32,-13.668 20,-32.777 20,-57.348 z m -35.15,22.813 c -1.37,10.629 -5.43,18.668 -12.19,24.218 -6.8,5.621 -16.05,8.442 -27.81,8.442 -11.17,0 -20.12,-2.742 -26.88,-8.129 -6.79,-5.434 -11.52,-13.594 -14.22,-24.531 z" /><path
         id="path44"
         style="fill:#4675b6;fill-opacity:1;fill-rule:nonzero;stroke:none"
         d="m 3018.24,234.141 28.13,15.308 c 2.07,-7.418 5.93,-13.039 11.56,-16.871 5.62,-3.867 12.85,-5.777 21.72,-5.777 7.58,0 13.51,1.719 17.81,5.148 4.38,3.52 6.56,8.321 6.56,14.379 0,8.012 -7.73,14.883 -23.12,20.621 -5.24,1.879 -9.22,3.442 -12.03,4.692 -15.86,6.558 -26.96,13.199 -33.28,20 -6.25,6.757 -9.38,15 -9.38,24.687 0,13.203 5.16,23.942 15.47,32.192 10.39,8.199 24.14,12.339 41.25,12.339 11.45,0 21.25,-2.148 29.37,-6.41 8.21,-4.179 14.22,-10.148 17.97,-17.969 l -24.06,-16.558 c -1.8,4.687 -4.92,8.359 -9.37,11.098 -4.38,2.808 -9.5,4.21 -15.32,4.21 -6.48,0 -11.68,-1.558 -15.62,-4.679 -3.87,-3.051 -5.78,-7.11 -5.78,-12.192 0,-7.738 8.75,-14.769 26.25,-21.089 5.51,-2 9.76,-3.598 12.81,-4.848 13.63,-5.434 23.36,-11.563 29.22,-18.442 5.94,-6.789 8.9,-15.269 8.9,-25.46 0,-14.809 -5.39,-26.411 -16.09,-34.848 -10.74,-8.32 -25.55,-12.5 -44.37,-12.5 -14.5,0 -26.53,2.738 -36.1,8.129 -9.61,5.39 -17.11,13.668 -22.5,24.84 z" /><path
         id="path46"
         style="fill:#4675b6;fill-opacity:1;fill-rule:nonzero;stroke:none"
         d="m 3314.18,276.328 h -118.44 c 0.82,-13.867 4.92,-24.687 12.35,-32.5 7.38,-7.738 17.22,-11.558 29.53,-11.558 10.93,0 20.04,2.261 27.34,6.871 7.27,4.57 13.63,11.949 19.06,22.187 l 28.6,-15.937 c -8.36,-14.922 -18.67,-26.012 -30.94,-33.282 -12.3,-7.269 -26.72,-10.937 -43.28,-10.937 -23.75,0 -42.66,7.226 -56.72,21.719 -14.06,14.449 -21.09,33.789 -21.09,57.968 0,23.2 7.22,42.262 21.71,57.192 14.58,15 33.29,22.5 56.1,22.5 23.83,0 42.42,-6.84 55.78,-20.473 13.32,-13.668 20,-32.777 20,-57.348 z m -35.16,22.813 c -1.36,10.629 -5.43,18.668 -12.18,24.218 -6.8,5.621 -16.06,8.442 -27.82,8.442 -11.17,0 -20.11,-2.742 -26.87,-8.129 -6.8,-5.434 -11.53,-13.594 -14.22,-24.531 z" /><path
         id="path48"
         style="fill:#4675b6;fill-opacity:1;fill-rule:nonzero;stroke:none"
         d="m 3383.55,331.801 c 3.64,9.758 8.44,17.027 14.38,21.719 6.02,4.679 13.48,7.031 22.34,7.031 4.77,0 9.46,-0.59 14.07,-1.723 4.68,-1.168 9.25,-2.808 13.75,-5 l -12.19,-28.75 c -2.93,2.07 -6.1,3.594 -9.53,4.531 -3.36,1.012 -7.11,1.563 -11.25,1.563 -11.25,0 -19.34,-4.531 -24.22,-13.594 -4.92,-8.988 -7.35,-24.058 -7.35,-45.308 v -65 h -33.9 v 148.429 h 33.9 z" /><path
         id="path50"
         style="fill:#4675b6;fill-opacity:1;fill-rule:nonzero;stroke:none"
         d="m 3519.8,198.359 -77.65,157.032 h 37.03 l 32.34,-74.532 c 1.02,-2.308 2.27,-5.738 3.75,-10.308 1.45,-4.61 2.97,-10.082 4.53,-16.41 1.02,4.449 2.23,8.91 3.6,13.281 1.44,4.457 3.16,8.949 5.15,13.437 l 32.19,74.532 h 36.88 z" /><path
         id="path52"
         style="fill:#4675b6;fill-opacity:1;fill-rule:nonzero;stroke:none"
         d="m 3616.05,419.449 c 0,5.711 2.07,10.672 6.25,14.852 4.26,4.14 9.3,6.25 15.16,6.25 6.02,0 11.02,-2.031 15,-6.102 4.06,-3.98 6.09,-8.98 6.09,-15 0,-6.051 -2.03,-11.168 -6.09,-15.308 -4.06,-4.063 -9.06,-6.09 -15,-6.09 -5.86,0 -10.9,2.07 -15.16,6.25 -4.18,4.25 -6.25,9.289 -6.25,15.148 z m 4.54,-64.058 h 33.8984 V 207.27 H 3620.59 Z" /><path
         id="path54"
         style="fill:#4675b6;fill-opacity:1;fill-rule:nonzero;stroke:none"
         d="m 3813.4,313.199 c -5.24,5.711 -11.33,10.082 -18.28,13.129 -6.88,3.012 -14.34,4.531 -22.35,4.531 -13.86,0 -24.96,-4.488 -33.28,-13.437 -8.36,-8.981 -12.5,-20.863 -12.5,-35.621 0,-15.43 4.14,-27.582 12.5,-36.41 8.44,-8.75 20.04,-13.121 34.85,-13.121 8.2,0 15.54,1.48 22.03,4.531 6.44,3.121 12.11,7.808 17.03,14.058 v -39.058 c -6.25,-3.563 -12.97,-6.18 -20.16,-7.973 -7.11,-1.758 -14.65,-2.656 -22.65,-2.656 -23.25,0 -42.19,7.379 -56.88,22.187 -14.61,14.762 -21.87,33.942 -21.87,57.5 0,23.832 7.54,43.051 22.65,57.661 15.2,14.679 35.04,22.031 59.53,22.031 7.7,0 14.77,-0.781 21.25,-2.352 6.45,-1.48 12.5,-3.75 18.13,-6.871 z" /><path
         id="path56"
         style="fill:#4675b6;fill-opacity:1;fill-rule:nonzero;stroke:none"
         d="m 3991.05,276.328 h -118.43 c 0.82,-13.867 4.92,-24.687 12.34,-32.5 7.38,-7.738 17.23,-11.558 29.53,-11.558 10.94,0 20.04,2.261 27.35,6.871 7.26,4.57 13.63,11.949 19.06,22.187 l 28.59,-15.937 c -8.36,-14.922 -18.67,-26.012 -30.94,-33.282 -12.3,-7.269 -26.71,-10.937 -43.28,-10.937 -23.75,0 -42.65,7.226 -56.72,21.719 -14.06,14.449 -21.09,33.789 -21.09,57.968 0,23.2 7.23,42.262 21.72,57.192 14.57,15 33.28,22.5 56.09,22.5 23.83,0 42.43,-6.84 55.78,-20.473 13.33,-13.668 20,-32.777 20,-57.348 z m -35.15,22.813 c -1.37,10.629 -5.43,18.668 -12.19,24.218 -6.8,5.621 -16.05,8.442 -27.81,8.442 -11.17,0 -20.12,-2.742 -26.88,-8.129 -6.79,-5.434 -11.52,-13.594 -14.22,-24.531 z" /><path
         id="path58"
         style="fill:#82b5dc;fill-opacity:1;fill-rule:nonzero;stroke:none"
         d="m 2015.78,135.66 h 19.53 l 22.97,-61.3983 c 1.45,-4.0625 2.7,-7.6211 3.75,-10.6328 1.02,-3.0391 1.92,-5.8984 2.66,-8.5898 1.95,6.4414 3.98,12.7304 6.09,18.9101 0.31,0.6992 0.51,1.25 0.63,1.5625 l 24.37,65.0003 25.78,-66.2503 c 1.14,-3.2422 2.23,-6.4922 3.28,-9.6914 1.14,-3.1211 2.19,-6.3711 3.13,-9.6914 0.51,2.5 1.25,5.2422 2.19,8.2813 0.93,3.0117 2.18,6.5703 3.75,10.6289 l 22.81,61.8709 h 19.69 L 2129.38,9.41016 2101.56,78.6289 c -1.25,3.1328 -2.42,6.1016 -3.44,8.9102 -0.93,2.8906 -1.79,5.6211 -2.5,8.1211 -0.93,-3.2383 -1.87,-6.3204 -2.81,-9.211 -0.93,-2.8203 -1.95,-5.5508 -2.97,-8.1289 L 2062.66,9.41016 Z m 174.42,0 h 19.8398 V 14.101 H 2190.2 Z" /><path
         id="path60"
         style="fill:#82b5dc;fill-opacity:1;fill-rule:nonzero;stroke:none"
         d="m 2258.2,83.7891 h 3.6 c 10.39,0 17.34,1.1718 20.78,3.5898 3.44,2.5 5.15,6.8828 5.15,13.1331 0,6.636 -1.87,11.328 -5.62,14.058 -3.67,2.7 -10.43,4.059 -20.31,4.059 h -3.6 z m -1.25,-15.3086 V 14.1016 h -18.59 V 135.66 h 27.66 c 8,0 14.25,-0.539 18.75,-1.558 4.45,-1.051 8.28,-2.813 11.4,-5.313 3.75,-2.93 6.6,-6.719 8.6,-11.41 2.07,-4.609 3.12,-9.649 3.12,-15.149 0,-9.8081 -2.34,-17.4605 -7.03,-22.9683 -4.69,-5.5508 -11.64,-8.832 -20.78,-9.8515 l 41.87,-55.3086 h -22.34 l -40.47,54.3789 z" /><path
         id="path62"
         style="fill:#82b5dc;fill-opacity:1;fill-rule:nonzero;stroke:none"
         d="M 2385.12,14.1016 V 135.66 h 19.84 V 31.7617 h 44.06 V 14.1016 Z" /><path
         id="path64"
         style="fill:#82b5dc;fill-opacity:1;fill-rule:nonzero;stroke:none"
         d="m 2465.43,14.1016 h 19.8398 v 121.559 H 2465.43 Z" /><path
         id="path66"
         style="fill:#82b5dc;fill-opacity:1;fill-rule:nonzero;stroke:none"
         d="M 2513.59,14.1016 V 135.66 h 67.82 v -16.871 h -47.97 V 88.3203 h 47.97 V 70.9805 h -47.97 V 31.7617 h 47.97 V 14.1016 Z" /><path
         id="path68"
         style="fill:#82b5dc;fill-opacity:1;fill-rule:nonzero;stroke:none"
         d="M 2604.26,14.1016 V 135.66 h 67.81 V 118.789 H 2624.1 V 88.6289 h 47.97 V 71.2891 H 2624.1 V 14.1016 Z" /><path
         id="path70"
         style="fill:#82b5dc;fill-opacity:1;fill-rule:nonzero;stroke:none"
         d="M 2693.55,14.1016 V 135.66 h 67.82 V 118.789 H 2713.4 V 88.3203 h 47.97 V 70.9805 H 2713.4 V 31.7617 h 47.97 V 14.1016 Z" /><path
         id="path72"
         style="fill:#82b5dc;fill-opacity:1;fill-rule:nonzero;stroke:none"
         d="m 2804.06,83.7891 h 3.6 c 10.39,0 17.34,1.1718 20.78,3.5898 3.44,2.5 5.15,6.8828 5.15,13.1331 0,6.636 -1.87,11.328 -5.62,14.058 -3.67,2.7 -10.43,4.059 -20.31,4.059 h -3.6 z m -1.25,-15.3086 V 14.1016 h -18.59 V 135.66 h 27.66 c 8,0 14.25,-0.539 18.74,-1.558 4.46,-1.051 8.29,-2.813 11.41,-5.313 3.75,-2.93 6.6,-6.719 8.59,-11.41 2.08,-4.609 3.13,-9.649 3.13,-15.149 0,-9.8081 -2.34,-17.4605 -7.03,-22.9683 -4.69,-5.5508 -11.64,-8.832 -20.78,-9.8515 l 41.87,-55.3086 h -22.34 L 2805,68.4805 Z" /><path
         id="path74"
         style="fill:#82b5dc;fill-opacity:1;fill-rule:nonzero;stroke:none"
         d="M 2879.49,14.1016 V 140.512 l 77.19,-74.3831 c 2.19,-2.1094 4.3,-4.3281 6.41,-6.7187 2.18,-2.4219 4.45,-5.0704 6.87,-7.961 V 135.66 h 18.28 V 9.41016 l -78.75,75.62894 c -2.19,1.9492 -4.29,4.1015 -6.25,6.4101 -1.87,2.2617 -3.71,4.6797 -5.47,7.1797 V 14.1016 Z" /><path
         id="path76"
         style="fill:#82b5dc;fill-opacity:1;fill-rule:nonzero;stroke:none"
         d="m 3060.55,38.4805 15.78,7.1797 c 1.44,-5.4297 4.14,-9.5313 8.12,-12.3399 3.95,-2.8086 9.07,-4.2187 15.32,-4.2187 5.82,0 10.46,1.5976 13.9,4.8476 3.52,3.1992 5.31,7.5703 5.31,13.1211 0,7.0703 -5.93,13.4414 -17.81,19.0586 -1.68,0.8203 -2.93,1.4492 -3.75,1.8828 -13.44,6.4375 -22.42,12.3399 -26.87,17.6485 -4.5,5.3203 -6.72,11.7617 -6.72,19.3788 0,9.883 3.36,17.891 10.15,24.063 6.76,6.128 15.55,9.218 26.41,9.218 8.95,0 16.45,-1.718 22.5,-5.16 6.02,-3.43 10.2,-8.39 12.5,-14.84 l -15.31,-7.968 c -2.5,3.75 -5.24,6.488 -8.13,8.277 -2.93,1.762 -6.25,2.66 -10,2.66 -5.31,0 -9.53,-1.41 -12.65,-4.219 -3.13,-2.73 -4.69,-6.371 -4.69,-10.941 0,-7.3009 6.87,-14.1407 20.62,-20.4688 1.02,-0.5391 1.88,-0.8907 2.5,-1.0899 11.96,-5.6211 20.2,-11.0898 24.69,-16.4101 4.46,-5.2305 6.72,-11.7891 6.72,-19.6797 0,-11.5703 -3.67,-20.75 -10.94,-27.5 -7.18,-6.8008 -16.95,-10.1602 -29.22,-10.1602 -10.43,0 -18.98,2.418 -25.62,7.1914 -6.56,4.7578 -10.86,11.5977 -12.81,20.4688 z" /><path
         id="path78"
         style="fill:#82b5dc;fill-opacity:1;fill-rule:nonzero;stroke:none"
         d="m 3186.37,61.7617 h 33.9 l -12.5,27.8086 c -0.62,1.7578 -1.36,3.7891 -2.18,6.0899 -0.75,2.2695 -1.53,4.8518 -2.35,7.6598 -0.62,-2.621 -1.33,-5.0817 -2.03,-7.3395 -0.74,-2.3086 -1.52,-4.461 -2.34,-6.4102 z m 54.68,-47.6601 -13.75,31.25 h -48.12 l -14.22,-31.25 h -20.62 l 58.75,126.4104 58.75,-126.4104 z" /><path
         id="path80"
         style="fill:#82b5dc;fill-opacity:1;fill-rule:nonzero;stroke:none"
         d="m 3270,135.66 h 19.53 V 61.7617 c 0,-10.9414 2.5,-19.1836 7.5,-24.6914 5.08,-5.4297 12.7,-8.1211 22.81,-8.1211 10,0 17.5,2.6914 22.5,8.1211 5.08,5.5078 7.66,13.75 7.66,24.6914 V 135.66 h 19.84 V 60.0391 c 0,-16.4883 -4.18,-28.8282 -12.5,-37.0274 -8.36,-8.1328 -20.86,-12.1914 -37.5,-12.1914 -16.79,0 -29.29,4.0586 -37.5,12.1914 -8.24,8.1172 -12.34,20.4688 -12.34,37.0274 z" /><path
         id="path82"
         style="fill:#82b5dc;fill-opacity:1;fill-rule:nonzero;stroke:none"
         d="m 3416.52,84.2617 h 7.5 c 9.46,0 16.14,1.2891 20,3.8985 3.95,2.5781 5.94,6.9179 5.94,12.9688 0,6.641 -1.84,11.332 -5.47,14.07 -3.55,2.692 -10.39,4.063 -20.47,4.063 h -7.5 z m 0,-53.6015 h 6.88 c 6.87,0 12.03,0.2382 15.47,0.789 3.43,0.5 6.13,1.4805 8.12,2.961 2.39,1.5703 4.26,3.6796 5.63,6.4101 1.33,2.6992 2.03,5.6602 2.03,8.9102 0,3.9414 -0.86,7.3398 -2.5,10.1484 -1.56,2.8906 -3.87,5.1602 -6.88,6.7227 -1.87,0.9375 -4.02,1.5976 -6.4,2.0273 -2.42,0.5117 -5.59,0.7813 -9.53,0.7813 h -12.82 z M 3397.15,14.1016 V 135.66 h 30.62 c 8.75,0 15.2,-0.461 19.38,-1.398 4.14,-0.942 7.73,-2.5 10.78,-4.692 3.75,-2.808 6.64,-6.48 8.75,-10.941 2.07,-4.488 3.12,-9.449 3.12,-14.84 0,-6.4882 -1.52,-11.8788 -4.53,-16.2499 -3.04,-4.3008 -7.42,-7.3086 -13.12,-9.0586 7.07,-1.0586 12.65,-4.3008 16.72,-9.6914 4.14,-5.3086 6.25,-12.0274 6.25,-20.1602 0,-4.918 -0.9,-9.6094 -2.66,-14.0586 -1.68,-4.3711 -4.14,-8.1211 -7.34,-11.25 -3.36,-3.3594 -7.46,-5.7422 -12.35,-7.1914 -4.92,-1.3594 -13.2,-2.0273 -24.84,-2.0273 z" /><path
         id="path84"
         style="fill:#82b5dc;fill-opacity:1;fill-rule:nonzero;stroke:none"
         d="M 3495.08,14.1016 V 135.66 h 67.81 v -16.871 h -47.97 V 88.3203 h 47.97 V 70.9805 h -47.97 V 31.7617 h 47.97 V 14.1016 Z" /><path
         id="path86"
         style="fill:#82b5dc;fill-opacity:1;fill-rule:nonzero;stroke:none"
         d="m 3605.59,83.7891 h 3.59 c 10.39,0 17.34,1.1718 20.78,3.5898 3.44,2.5 5.16,6.8828 5.16,13.1331 0,6.636 -1.88,11.328 -5.63,14.058 -3.67,2.7 -10.43,4.059 -20.31,4.059 h -3.59 z m -1.25,-15.3086 V 14.1016 h -18.6 V 135.66 h 27.66 c 8.01,0 14.26,-0.539 18.75,-1.558 4.45,-1.051 8.28,-2.813 11.4,-5.313 3.75,-2.93 6.61,-6.719 8.6,-11.41 2.07,-4.609 3.12,-9.649 3.12,-15.149 0,-9.8081 -2.34,-17.4605 -7.03,-22.9683 -4.69,-5.5508 -11.64,-8.832 -20.78,-9.8515 l 41.88,-55.3086 h -22.35 l -40.47,54.3789 z" /><path
         id="path88"
         style="fill:#82b5dc;fill-opacity:1;fill-rule:nonzero;stroke:none"
         d="M 3681.02,14.1016 V 135.66 h 19.84 V 85.3516 l 43.59,50.3084 h 24.22 l -48.12,-54.0584 53.75,-67.5 h -25.47 l -47.97,62.0273 V 14.1016 Z" /><path
         id="path90"
         style="fill:#82b5dc;fill-opacity:1;fill-rule:nonzero;stroke:none"
         d="M 3786.6,14.1016 V 135.66 h 67.81 v -16.871 h -47.96 V 88.3203 h 47.96 V 70.9805 h -47.96 V 31.7617 h 47.96 V 14.1016 Z" /><path
         id="path92"
         style="fill:#82b5dc;fill-opacity:1;fill-rule:nonzero;stroke:none"
         d="m 3877.58,14.1016 h 19.8398 v 121.559 H 3877.58 Z" /><path
         id="path94"
         style="fill:#82b5dc;fill-opacity:1;fill-rule:nonzero;stroke:none"
         d="M 3965.12,118.789 V 14.1016 h -19.85 V 118.789 h -32.34 v 16.871 h 84.22 v -16.871 z" />
         </g>
         </g>
         </svg>